<mxfile host="app.diagrams.net" agent="Mozilla/5.0 (Windows NT 10.0; Win64; x64) AppleWebKit/537.36 (KHTML, like Gecko) Chrome/138.0.0.0 Safari/537.36" version="28.0.7">
  <diagram name="Page-1" id="jrSdHQMgK089XcJ-C_Xo">
    <mxGraphModel dx="1042" dy="561" grid="1" gridSize="10" guides="1" tooltips="1" connect="1" arrows="1" fold="1" page="1" pageScale="1" pageWidth="850" pageHeight="1100" math="0" shadow="0">
      <root>
        <mxCell id="0" />
        <mxCell id="1" parent="0" />
        <mxCell id="vn2afhrgctd-0swqZbIL-3" style="edgeStyle=orthogonalEdgeStyle;rounded=0;orthogonalLoop=1;jettySize=auto;html=1;entryX=0;entryY=0.5;entryDx=0;entryDy=0;" edge="1" parent="1" source="vn2afhrgctd-0swqZbIL-1" target="vn2afhrgctd-0swqZbIL-2">
          <mxGeometry relative="1" as="geometry" />
        </mxCell>
        <mxCell id="vn2afhrgctd-0swqZbIL-1" value="" style="outlineConnect=0;dashed=0;verticalLabelPosition=bottom;verticalAlign=top;align=center;html=1;shape=mxgraph.aws3.application_load_balancer;fillColor=#F58534;gradientColor=none;" vertex="1" parent="1">
          <mxGeometry x="150" y="201" width="69" height="72" as="geometry" />
        </mxCell>
        <mxCell id="vn2afhrgctd-0swqZbIL-2" value="" style="image;aspect=fixed;perimeter=ellipsePerimeter;html=1;align=center;shadow=0;dashed=0;fontColor=#4277BB;labelBackgroundColor=default;fontSize=12;spacingTop=3;image=img/lib/ibm/vpc/LoadBalancerListener.svg;" vertex="1" parent="1">
          <mxGeometry x="280" y="202" width="70" height="70" as="geometry" />
        </mxCell>
        <mxCell id="vn2afhrgctd-0swqZbIL-10" style="edgeStyle=orthogonalEdgeStyle;rounded=0;orthogonalLoop=1;jettySize=auto;html=1;entryX=0;entryY=0.5;entryDx=0;entryDy=0;" edge="1" parent="1" source="vn2afhrgctd-0swqZbIL-4" target="vn2afhrgctd-0swqZbIL-9">
          <mxGeometry relative="1" as="geometry" />
        </mxCell>
        <mxCell id="vn2afhrgctd-0swqZbIL-4" value="" style="outlineConnect=0;dashed=0;verticalLabelPosition=bottom;verticalAlign=top;align=center;html=1;shape=mxgraph.aws3.config_rule;fillColor=#759C3E;gradientColor=none;" vertex="1" parent="1">
          <mxGeometry x="404" y="100" width="43" height="50" as="geometry" />
        </mxCell>
        <mxCell id="vn2afhrgctd-0swqZbIL-5" value="&lt;b&gt;&lt;font face=&quot;Comic Sans MS&quot;&gt;daws84s.site&lt;/font&gt;&lt;/b&gt;" style="text;html=1;align=center;verticalAlign=middle;resizable=0;points=[];autosize=1;strokeColor=none;fillColor=none;" vertex="1" parent="1">
          <mxGeometry x="134.5" y="273" width="100" height="30" as="geometry" />
        </mxCell>
        <mxCell id="vn2afhrgctd-0swqZbIL-6" value="&lt;b&gt;https 443&lt;/b&gt;" style="text;html=1;align=center;verticalAlign=middle;resizable=0;points=[];autosize=1;strokeColor=none;fillColor=none;" vertex="1" parent="1">
          <mxGeometry x="275" y="273" width="80" height="30" as="geometry" />
        </mxCell>
        <mxCell id="vn2afhrgctd-0swqZbIL-7" style="edgeStyle=orthogonalEdgeStyle;rounded=0;orthogonalLoop=1;jettySize=auto;html=1;entryX=0;entryY=0.5;entryDx=0;entryDy=0;entryPerimeter=0;" edge="1" parent="1" source="vn2afhrgctd-0swqZbIL-2" target="vn2afhrgctd-0swqZbIL-4">
          <mxGeometry relative="1" as="geometry" />
        </mxCell>
        <mxCell id="vn2afhrgctd-0swqZbIL-8" value="&lt;b&gt;app1.daws84s.site&lt;/b&gt;" style="text;html=1;align=center;verticalAlign=middle;resizable=0;points=[];autosize=1;strokeColor=none;fillColor=none;" vertex="1" parent="1">
          <mxGeometry x="250" y="110" width="130" height="30" as="geometry" />
        </mxCell>
        <mxCell id="vn2afhrgctd-0swqZbIL-9" value="&lt;b&gt;APP1 TargetGroup&lt;/b&gt;" style="rounded=0;whiteSpace=wrap;html=1;fillColor=#f8cecc;gradientColor=#ea6b66;strokeColor=#b85450;" vertex="1" parent="1">
          <mxGeometry x="510" y="95" width="120" height="60" as="geometry" />
        </mxCell>
        <mxCell id="vn2afhrgctd-0swqZbIL-17" value="" style="aspect=fixed;sketch=0;html=1;dashed=0;whitespace=wrap;verticalLabelPosition=bottom;verticalAlign=top;fillColor=#2875E2;strokeColor=#ffffff;points=[[0.005,0.63,0],[0.1,0.2,0],[0.9,0.2,0],[0.5,0,0],[0.995,0.63,0],[0.72,0.99,0],[0.5,1,0],[0.28,0.99,0]];shape=mxgraph.kubernetes.icon2;prIcon=pod" vertex="1" parent="1">
          <mxGeometry x="700" y="102" width="50" height="48" as="geometry" />
        </mxCell>
        <mxCell id="vn2afhrgctd-0swqZbIL-18" style="edgeStyle=orthogonalEdgeStyle;rounded=0;orthogonalLoop=1;jettySize=auto;html=1;entryX=0.04;entryY=0.471;entryDx=0;entryDy=0;entryPerimeter=0;" edge="1" parent="1" source="vn2afhrgctd-0swqZbIL-9" target="vn2afhrgctd-0swqZbIL-17">
          <mxGeometry relative="1" as="geometry" />
        </mxCell>
        <mxCell id="vn2afhrgctd-0swqZbIL-19" value="" style="aspect=fixed;sketch=0;html=1;dashed=0;whitespace=wrap;verticalLabelPosition=bottom;verticalAlign=top;fillColor=#2875E2;strokeColor=#ffffff;points=[[0.005,0.63,0],[0.1,0.2,0],[0.9,0.2,0],[0.5,0,0],[0.995,0.63,0],[0.72,0.99,0],[0.5,1,0],[0.28,0.99,0]];shape=mxgraph.kubernetes.icon2;prIcon=pod" vertex="1" parent="1">
          <mxGeometry x="700" y="180" width="50" height="48" as="geometry" />
        </mxCell>
        <mxCell id="vn2afhrgctd-0swqZbIL-20" value="" style="aspect=fixed;sketch=0;html=1;dashed=0;whitespace=wrap;verticalLabelPosition=bottom;verticalAlign=top;fillColor=#2875E2;strokeColor=#ffffff;points=[[0.005,0.63,0],[0.1,0.2,0],[0.9,0.2,0],[0.5,0,0],[0.995,0.63,0],[0.72,0.99,0],[0.5,1,0],[0.28,0.99,0]];shape=mxgraph.kubernetes.icon2;prIcon=pod" vertex="1" parent="1">
          <mxGeometry x="700" y="20" width="50" height="48" as="geometry" />
        </mxCell>
        <mxCell id="vn2afhrgctd-0swqZbIL-21" style="edgeStyle=orthogonalEdgeStyle;rounded=0;orthogonalLoop=1;jettySize=auto;html=1;entryX=0.005;entryY=0.63;entryDx=0;entryDy=0;entryPerimeter=0;" edge="1" parent="1" source="vn2afhrgctd-0swqZbIL-9" target="vn2afhrgctd-0swqZbIL-20">
          <mxGeometry relative="1" as="geometry" />
        </mxCell>
        <mxCell id="vn2afhrgctd-0swqZbIL-22" style="edgeStyle=orthogonalEdgeStyle;rounded=0;orthogonalLoop=1;jettySize=auto;html=1;entryX=0.005;entryY=0.63;entryDx=0;entryDy=0;entryPerimeter=0;" edge="1" parent="1" source="vn2afhrgctd-0swqZbIL-9" target="vn2afhrgctd-0swqZbIL-19">
          <mxGeometry relative="1" as="geometry" />
        </mxCell>
        <mxCell id="vn2afhrgctd-0swqZbIL-27" style="edgeStyle=orthogonalEdgeStyle;rounded=0;orthogonalLoop=1;jettySize=auto;html=1;entryX=0;entryY=0.5;entryDx=0;entryDy=0;" edge="1" parent="1" source="vn2afhrgctd-0swqZbIL-23" target="vn2afhrgctd-0swqZbIL-26">
          <mxGeometry relative="1" as="geometry" />
        </mxCell>
        <mxCell id="vn2afhrgctd-0swqZbIL-23" value="" style="outlineConnect=0;dashed=0;verticalLabelPosition=bottom;verticalAlign=top;align=center;html=1;shape=mxgraph.aws3.config_rule;fillColor=#759C3E;gradientColor=none;" vertex="1" parent="1">
          <mxGeometry x="404" y="310" width="43" height="50" as="geometry" />
        </mxCell>
        <mxCell id="vn2afhrgctd-0swqZbIL-24" value="&lt;b&gt;app2.daws84s.site&lt;/b&gt;" style="text;html=1;align=center;verticalAlign=middle;resizable=0;points=[];autosize=1;strokeColor=none;fillColor=none;" vertex="1" parent="1">
          <mxGeometry x="355" y="370" width="130" height="30" as="geometry" />
        </mxCell>
        <mxCell id="vn2afhrgctd-0swqZbIL-25" style="edgeStyle=orthogonalEdgeStyle;rounded=0;orthogonalLoop=1;jettySize=auto;html=1;entryX=0;entryY=0.5;entryDx=0;entryDy=0;entryPerimeter=0;" edge="1" parent="1" source="vn2afhrgctd-0swqZbIL-2" target="vn2afhrgctd-0swqZbIL-23">
          <mxGeometry relative="1" as="geometry" />
        </mxCell>
        <mxCell id="vn2afhrgctd-0swqZbIL-26" value="&lt;b&gt;APP2 TargetGroup&lt;/b&gt;" style="rounded=0;whiteSpace=wrap;html=1;fillColor=#f8cecc;gradientColor=#ea6b66;strokeColor=#b85450;" vertex="1" parent="1">
          <mxGeometry x="510" y="305" width="120" height="60" as="geometry" />
        </mxCell>
        <mxCell id="vn2afhrgctd-0swqZbIL-28" value="" style="aspect=fixed;sketch=0;html=1;dashed=0;whitespace=wrap;verticalLabelPosition=bottom;verticalAlign=top;fillColor=#2875E2;strokeColor=#ffffff;points=[[0.005,0.63,0],[0.1,0.2,0],[0.9,0.2,0],[0.5,0,0],[0.995,0.63,0],[0.72,0.99,0],[0.5,1,0],[0.28,0.99,0]];shape=mxgraph.kubernetes.icon2;prIcon=pod" vertex="1" parent="1">
          <mxGeometry x="700" y="257" width="50" height="48" as="geometry" />
        </mxCell>
        <mxCell id="vn2afhrgctd-0swqZbIL-29" value="" style="aspect=fixed;sketch=0;html=1;dashed=0;whitespace=wrap;verticalLabelPosition=bottom;verticalAlign=top;fillColor=#2875E2;strokeColor=#ffffff;points=[[0.005,0.63,0],[0.1,0.2,0],[0.9,0.2,0],[0.5,0,0],[0.995,0.63,0],[0.72,0.99,0],[0.5,1,0],[0.28,0.99,0]];shape=mxgraph.kubernetes.icon2;prIcon=pod" vertex="1" parent="1">
          <mxGeometry x="700" y="311" width="50" height="48" as="geometry" />
        </mxCell>
        <mxCell id="vn2afhrgctd-0swqZbIL-30" value="" style="aspect=fixed;sketch=0;html=1;dashed=0;whitespace=wrap;verticalLabelPosition=bottom;verticalAlign=top;fillColor=#2875E2;strokeColor=#ffffff;points=[[0.005,0.63,0],[0.1,0.2,0],[0.9,0.2,0],[0.5,0,0],[0.995,0.63,0],[0.72,0.99,0],[0.5,1,0],[0.28,0.99,0]];shape=mxgraph.kubernetes.icon2;prIcon=pod" vertex="1" parent="1">
          <mxGeometry x="700" y="380" width="50" height="48" as="geometry" />
        </mxCell>
        <mxCell id="vn2afhrgctd-0swqZbIL-31" style="edgeStyle=orthogonalEdgeStyle;rounded=0;orthogonalLoop=1;jettySize=auto;html=1;entryX=0.005;entryY=0.63;entryDx=0;entryDy=0;entryPerimeter=0;" edge="1" parent="1" source="vn2afhrgctd-0swqZbIL-26" target="vn2afhrgctd-0swqZbIL-28">
          <mxGeometry relative="1" as="geometry" />
        </mxCell>
        <mxCell id="vn2afhrgctd-0swqZbIL-32" style="edgeStyle=orthogonalEdgeStyle;rounded=0;orthogonalLoop=1;jettySize=auto;html=1;entryX=0.005;entryY=0.63;entryDx=0;entryDy=0;entryPerimeter=0;" edge="1" parent="1" source="vn2afhrgctd-0swqZbIL-26" target="vn2afhrgctd-0swqZbIL-29">
          <mxGeometry relative="1" as="geometry" />
        </mxCell>
        <mxCell id="vn2afhrgctd-0swqZbIL-33" style="edgeStyle=orthogonalEdgeStyle;rounded=0;orthogonalLoop=1;jettySize=auto;html=1;entryX=0.005;entryY=0.63;entryDx=0;entryDy=0;entryPerimeter=0;" edge="1" parent="1" source="vn2afhrgctd-0swqZbIL-26" target="vn2afhrgctd-0swqZbIL-30">
          <mxGeometry relative="1" as="geometry" />
        </mxCell>
      </root>
    </mxGraphModel>
  </diagram>
</mxfile>
